<?xml version="1.0" standalone="no"?><!DOCTYPE svg PUBLIC "-//W3C//DTD SVG 1.1//EN" "http://www.w3.org/Graphics/SVG/1.1/DTD/svg11.dtd"><svg t="1668071642800" class="icon" viewBox="0 0 1195 1024" version="1.1" xmlns="http://www.w3.org/2000/svg" p-id="18845" xmlns:xlink="http://www.w3.org/1999/xlink" width="233.3984375" height="200"><path d="M763.358637 800.645502l-165.122644 69.657837-165.22755-69.657837v-104.172037h330.350194v104.172037z" fill="#92CAEE" p-id="18846"></path><path d="M757.798599 780.293664l-82.561322 34.828919-53.187535 22.345059C617.328955 839.25105 587.850262 849.741689 598.235993 849.741689s-18.673336-9.966106-23.813748-12.169141l-53.187536-22.449965-82.561322-34.828919 15.526145 20.351838v-104.172037l-20.981277 20.981277h330.140382l-20.981276-20.981277v104.172037c0 27.275659 41.962553 27.275659 41.962553 0v-104.172037a21.505808 21.505808 0 0 0-20.981277-20.981276H433.113349a20.981276 20.981276 0 0 0-20.981276 20.981276v104.172037a22.03034 22.03034 0 0 0 15.526144 20.981276L519.556207 860.232327c20.981276 8.917042 54.551318 31.471914 78.679786 31.471914s56.649446-22.240153 78.679786-31.471914l92.107803-38.815361c24.653-10.700451 13.847642-51.61394-11.224983-41.123302z" fill="#49494A" p-id="18847"></path><path d="M145.250239 797.917936l232.472541 2.727566v-96.933496l-232.472541 32.311165v61.894765z" fill="#92CAEE" p-id="18848"></path><path d="M372.057835 683.360168L139.690201 715.671333a20.981276 20.981276 0 0 0-15.526145 20.351838v61.894765a21.505808 21.505808 0 0 0 20.981276 20.981276l232.472541 2.727566c27.170753 0 27.170753-41.962553 0-41.962552l-232.472541-2.727566 20.981277 20.981276v-61.894765l-15.211426 20.351838L383.387724 723.854031c26.751127-3.671723 15.316332-44.480306-11.329889-40.703676z" fill="#49494A" p-id="18849"></path><path d="M90.489108 766.655835a34.094574 34.094574 0 1 1-34.094574-34.094574 33.989668 33.989668 0 0 1 34.094574 34.094574z" fill="#F3D24F" p-id="18850"></path><path d="M69.402925 766.655835a13.008391 13.008391 0 0 1-25.911876 0 13.008391 13.008391 0 0 1 25.911876 0c1.468689 26.96094 43.745961 27.170753 41.962553 0a56.334727 56.334727 0 0 0-55.285663-55.285663 55.180757 55.180757 0 0 0-1.783409 110.361513 56.124914 56.124914 0 0 0 57.069072-55.07585c1.783408-27.170753-40.493863-27.170753-41.962553 0z" fill="#49494A" p-id="18851"></path><path d="M1050.697216 797.917936l-231.738196 2.727566v-96.933496l231.738196 32.311165v61.894765z" fill="#92CAEE" p-id="18852"></path><path d="M973.381213 747.038341l77.316003 10.490638-20.981276-20.981276v61.894765l20.981276-20.981276-231.213665 2.098127c-27.170753 0-27.275659 42.591991 0 41.962553l230.794039-2.412847a20.981276 20.981276 0 0 0 20.981277-20.981276v-61.894765a21.715621 21.715621 0 0 0-20.981277-20.981276l-77.316003-10.490638c-26.856034-3.566817-26.541314 38.710455 0 41.962552z" fill="#49494A" p-id="18853"></path><path d="M920.928022 741.373397c27.170753 0 27.275659-41.962553 0-41.962553s-27.275659 41.962553 0 41.962553zM813.398981 723.854031l49.935438 8.39251a21.820527 21.820527 0 0 0 26.016782-14.686893 20.981276 20.981276 0 0 0-14.791799-26.016782l-49.935438-8.392511A21.820527 21.820527 0 0 0 798.502275 698.047061 20.981276 20.981276 0 0 0 813.398981 723.854031z" fill="#49494A" p-id="18854"></path><path d="M1174.06712 766.655835a34.094574 34.094574 0 1 1-33.989667-34.094574 33.989668 33.989668 0 0 1 33.989667 34.094574z" fill="#F3D24F" p-id="18855"></path><path d="M1152.980938 766.655835a13.008391 13.008391 0 0 1-25.911877 0 13.008391 13.008391 0 0 1 25.911877 0c1.468689 26.96094 43.745961 27.170753 41.962552 0a55.285663 55.285663 0 1 0-57.069071 55.07585 56.334727 56.334727 0 0 0 57.069071-55.07585c2.203034-27.170753-40.493863-27.170753-41.962552 0z" fill="#49494A" p-id="18856"></path><path d="M635.267946 117.600053v315.348583l-37.031953 0.209812-37.031952-0.209812V117.600053H432.483911l9.021949 497.361154h313.460267l9.021949-497.361154H635.267946z" fill="#92CAEE" p-id="18857"></path><path d="M657.927724 427.388597a103.437692 103.437692 0 0 1 99.031624 73.434467l4.091349-183.481261h-125.887658v110.046794zM538.544262 427.388597h22.659779V317.44671h-125.887658l4.091349 183.376354a103.542598 103.542598 0 0 1 99.13653-73.434467z" fill="#5DA1D3" p-id="18858"></path><path d="M437.519417 448.47478c27.170753 0 27.170753-41.962553 0-41.962552s-27.275659 41.962553 0 41.962552zM598.235993 453.40538c27.170753 0 27.170753-41.962553 0-41.962553s-27.275659 41.962553 0 41.962553zM582.290223 371.683309V117.600053a20.981276 20.981276 0 0 0-20.981276-20.981276H432.483911a20.981276 20.981276 0 0 0-20.981276 20.981276l4.720787 260.692358c0 27.170753 42.696897 27.275659 41.962552 0l-4.720787-260.692358-20.981276 20.981277h128.72013l-20.981277-20.981277v254.083256c0 27.170753 41.962553 27.275659 41.962553 0zM779.409314 418.786274l5.664944-301.186221a20.981276 20.981276 0 0 0-20.981276-20.981276H635.267946a20.981276 20.981276 0 0 0-20.981276 20.981276v264.888613c0 27.170753 41.962553 27.170753 41.962552 0V117.600053l-20.981276 20.981277h128.72013l-20.981277-20.981277-5.664944 301.186221c-0.524532 27.170753 41.962553 27.170753 41.962552 0z" fill="#49494A" p-id="18859"></path><path d="M543.474862 410.603576c-58.85248 0.629438-112.459641 45.21465-116.865709 104.906382-1.993221 27.170753 40.28405 26.96094 41.962553 0 2.62266-36.192702 40.074238-61.999671 74.588437-62.419297 27.170753 0 27.170753-42.591991 0-41.962553zM650.164652 454.034818c32.835697 0 86.757577 24.023561 89.904769 61.265327 2.203034 26.96094 44.480306 27.170753 41.962552 0-5.140413-61.894765-73.434467-103.018066-132.077134-103.542598-27.170753 0-27.170753 41.962553 0 41.962552z" fill="#49494A" p-id="18860"></path><path d="M704.086532 20.981276c-33.150416 0-59.901544 20.351838-59.901544 45.52937h119.803088C763.988076 40.808582 737.132042 20.981276 704.086532 20.981276z" fill="#F3D24F" p-id="18861"></path><path d="M785.074258 65.986114c-6.714008-88.016454-155.471257-88.016454-162.185265 0-1.993221 27.170753 40.28405 27.065846 41.962552 0 2.517753-33.255323 75.112969-33.255323 77.630723 0 2.098128 26.96094 44.375399 27.170753 41.962552 0z" fill="#49494A" p-id="18862"></path><path d="M496.896429 20.981276c-33.150416 0-60.00645 20.351838-60.00645 45.52937H557.217598C557.217598 40.808582 529.941939 20.981276 496.896429 20.981276z" fill="#F3D24F" p-id="18863"></path><path d="M578.198874 65.986114c-6.609102-88.016454-155.471257-88.016454-162.185265 0-1.993221 27.170753 40.28405 27.065846 41.962552 0 2.517753-33.255323 75.112969-33.255323 77.630723 0 2.098128 26.96094 44.375399 27.170753 41.962552 0zM435.316383 338.532892h66.405739c27.275659 0 27.275659-41.962553 0-41.962552h-66.405739c-27.170753 0-27.170753 41.962553 0 41.962552zM635.267946 338.532892h59.377012c27.275659 0 27.275659-41.962553 0-41.962552h-59.377012c-27.170753 0-27.275659 41.962553 0 41.962552z" fill="#49494A" p-id="18864"></path><path d="M762.834106 696.473465a68.923493 68.923493 0 0 1-67.769523 70.18237H501.302497a68.923493 68.923493 0 0 1-67.664616-70.18237V556.528353a68.923493 68.923493 0 0 1 67.664616-70.077463h193.762086a68.923493 68.923493 0 0 1 67.769523 70.077463z" fill="#F3D24F" p-id="18865"></path><path d="M433.637881 696.473465a68.923493 68.923493 0 0 0 67.664616 70.18237h193.762086a68.923493 68.923493 0 0 0 67.769523-70.18237z" fill="#BFAD65" p-id="18866"></path><path d="M741.747923 696.473465c-6.08457 61.999671-75.217875 48.99128-117.914773 48.991281-37.766297 0-78.784692 4.615881-116.341177 0-56.54454-6.923821-52.453191-51.823752-52.45319-94.415744 0-29.898319-4.9306-64.93705 0-94.415743 10.490638-60.00645 68.189148-48.886374 112.879266-48.886374 38.185923 0 78.784692-4.091349 116.760802 0 52.453191 5.664945 57.383791 41.962553 57.383791 85.183982v103.647505c0 27.275659 41.962553 27.275659 41.962553 0 0-63.78308 22.240153-174.354406-40.284051-216.316958-30.317944-20.246932-70.392182-14.7918-104.906381-14.7918-43.536148 0-87.596828-1.783408-131.132977 0-106.68979 4.406068-95.045181 107.948666-95.045181 185.684295 0 38.920267-3.671723 79.519037 26.016782 109.941887 28.11491 28.744348 64.622331 26.751127 101.339565 26.751128 86.233045 0 232.367635 30.213038 244.117149-91.268552 2.517753-27.065846-39.759519-26.96094-42.382178-0.104907z" fill="#49494A" p-id="18867"></path><path d="M523.332837 668.253649H672.614618c27.275659 0 27.275659-41.962553 0-41.962553H523.332837c-27.170753 0-27.170753 41.962553 0 41.962553zM523.332837 588.21008H672.614618c27.275659 0 27.275659-41.962553 0-41.962553H523.332837c-27.170753 0-27.170753 41.962553 0 41.962553z" fill="#49494A" p-id="18868"></path><path d="M694.749864 906.496041a96.513871 96.513871 0 1 1-96.513871-96.408965 96.513871 96.513871 0 0 1 96.513871 96.408965z" fill="#92CAEE" p-id="18869"></path><path d="M673.558775 906.496041c-5.140413 96.513871-150.645564 97.353122-150.645564 0s145.505151-96.408964 150.645564 0c1.468689 27.065846 43.745961 27.275659 41.962553 0-3.461911-63.678173-51.089408-117.495147-117.600054-117.495147a117.495147 117.495147 0 0 0-5.245319 234.885387c68.503867 2.937379 119.278556-51.404127 122.845373-117.39024 1.783408-27.170753-40.493863-27.065846-41.962553 0z" fill="#49494A" p-id="18870"></path><path d="M598.235993 752.178754A124.628781 124.628781 0 0 0 473.292493 876.807535a125.887658 125.887658 0 0 0 2.203034 22.764685 177.501597 177.501597 0 0 0 244.851494 0 125.887658 125.887658 0 0 0 2.203034-22.764685A124.628781 124.628781 0 0 0 598.235993 752.178754z" fill="#F3D24F" p-id="18871"></path><path d="M598.235993 731.092571c-72.17559 3.881536-134.699794 52.453191-144.246274 126.517096-4.510974 34.514199 0 53.712067 28.11491 74.168812a198.273061 198.273061 0 0 0 116.131364 37.871203 200.89572 200.89572 0 0 0 110.256607-33.465135c30.632663-20.456744 38.605548-38.815361 34.409293-75.742408-8.602323-75.532595-71.336339-125.887658-144.6659-129.349568-27.170753-1.468689-27.065846 40.808582 0 41.962553 48.571655 2.62266 91.163645 32.940604 101.339565 82.351509 11.120076 53.502254-60.216263 71.651058-101.339565 71.651059s-112.564547-17.624272-101.339564-71.651059c10.490638-49.410906 52.453191-79.72885 101.339564-82.351509 27.065846-1.15397 27.170753-43.431242 0-41.962553z" fill="#49494A" p-id="18872"></path><path d="M627.504874 891.704241c27.170753 0 27.170753-41.962553 0-41.962552s-27.275659 41.962553 0 41.962552zM568.967113 891.704241c27.275659 0 27.275659-41.962553 0-41.962552s-27.170753 41.962553 0 41.962552zM627.504874 836.523484c27.170753 0 27.170753-41.962553 0-41.962552s-27.275659 41.962553 0 41.962552zM568.967113 836.523484c27.275659 0 27.275659-41.962553 0-41.962552s-27.170753 41.962553 0 41.962552zM1046.81568 554.0106V317.44671M1067.901862 554.0106V317.44671c0-27.275659-41.962553-27.275659-41.962552 0v236.56389c0 27.275659 41.962553 27.275659 41.962552 0zM1046.81568 278.211723c27.170753 0 27.170753-41.962553 0-41.962552s-27.275659 41.962553 0 41.962552zM1140.077453 369.794994c27.170753 0 27.170753-41.962553 0-41.962552s-27.275659 41.962553 0 41.962552zM1140.077453 645.803683V409.134887M1161.163635 645.803683V409.134887c0-27.170753-41.962553-27.275659-41.962552 0v236.668796c0 27.170753 41.962553 27.170753 41.962552 0zM149.656307 554.0106V317.44671M170.742489 554.0106V317.44671c0-27.275659-41.962553-27.275659-41.962552 0v236.56389c0 27.275659 41.962553 27.275659 41.962552 0zM149.656307 278.211723c27.170753 0 27.275659-41.962553 0-41.962552s-27.275659 41.962553 0 41.962552zM56.394534 369.794994c27.170753 0 27.275659-41.962553 0-41.962552s-27.170753 41.962553 0 41.962552zM56.394534 645.803683V409.134887M77.585623 645.803683V409.134887c0-27.170753-41.962553-27.275659-41.962553 0v236.668796c0 27.170753 41.962553 27.170753 41.962553 0z" fill="#49494A" p-id="18873"></path></svg>